# xmcd
# 
# Track frame offsets:
#     182
#     13287
#     25892
#     40750
#     54027
#     67557
#     80565
#     93752
#     106632
#     120325
#     133312
#     144505
#     156445
#     168222
#     181707
#     193055
#     207532
#     219812
#     233757
#     247212
#     261357
#     272417
#     288215
#     308267
#     324875
# 
# Disc length: 4506
# 
# Revision: 0
# Processed by: cddbd v1.5.2PL0 Copyright (c) Steve Scherf et al.
# Submitted via: fre:ac v1.0.17
# 
DISCID=46119819
DTITLE=Various Artist - D2 Sidney Bechet 100
DYEAR=0
DGENRE=Blues
TTITLE0=Sidney Bechet's New Orleans Feetwarmers - Shake it and break it
TTITLE1=Sidney Bechet's New Orleans Feetwarmers - Old Man Blues
TTITLE2=Sidney Bechet's New Orleans Feetwarmers - Wild Man Blues
TTITLE3=Sidney Bechet's Trio - Blues in Thirds
TTITLE4=Sidney Bechet's New Orleans Feetwarmers - Blue for you Johnny
TTITLE5=Sidney Bechet's New Orleans Feetwarmers - Ain't Misbehavin'
TTITLE6=Sidney Bechet's New Orleans Feetwarmers - Save it, Pretty Mama
TTITLE7=Sidney Bechet's New Orleans Feetwarmers - Stompy Jones
TTITLE8=Sidney Bechet's New Orleans Feetwarmers - Egyptian Fantasy
TTITLE9=Sidney Bechet's New Orleans Feetwarmers - Slippin' and Slidin'
TTITLE10=Sidney Bechet's New Orleans Feetwarmers - I know that you know
TTITLE11=Sidney Bechet's New Orleans Feetwarmers - I'm Coming Virginia
TTITLE12=Sidney Bechet's New Orleans Feetwarmers - Limehouse Blues
TTITLE13=Sidney Bechet's New Orleans Feetwarmers - Georgia Cabin
TTITLE14=Sidney Bechet's Trio - Strange Fruit
TTITLE15=Sidney Bechet's Trio - Your the Limit
TTITLE16=Sidney Bechet's New Orleans Feetwarmers - Blues in the Air
TTITLE17=Sidney Bechet's New Orleans Feetwarmers - The Mooche
TTITLE18=Sidney Bechet's New Orleans Feetwarmers - Twelfth Street Rag
TTITLE19=Sidney Bechet's New Orleans Feetwarmers - Mood Indigo
TTITLE20=Sidney Bechet's New Orleans Feetwarmers - Lady be Good
TTITLE21=Sidney Bechet's New Orleans Feetwarmers - What is this thing called Love
TTITLE22=Sidney Bechet's Blue Note Jazzmen - Blue Horizon
TTITLE23=Sidney Bechet's Blue Note Jazzmen - Muskrat Ramble
TTITLE24=Mezzrow - Bechet's Septet - Perdido Street Stomp
EXTD=
EXTT0=
EXTT1=
EXTT2=
EXTT3=
EXTT4=
EXTT5=
EXTT6=
EXTT7=
EXTT8=
EXTT9=
EXTT10=
EXTT11=
EXTT12=
EXTT13=
EXTT14=
EXTT15=
EXTT16=
EXTT17=
EXTT18=
EXTT19=
EXTT20=
EXTT21=
EXTT22=
EXTT23=
EXTT24=
PLAYORDER=
